<?xml version="1.0" standalone="no"?>
<!DOCTYPE svg PUBLIC "-//W3C//DTD SVG 20010904//EN"
 "http://www.w3.org/TR/2001/REC-SVG-20010904/DTD/svg10.dtd">
<svg version="1.0" xmlns="http://www.w3.org/2000/svg"
 width="248.000000pt" height="249.000000pt" viewBox="0 0 248.000000 249.000000"
 preserveAspectRatio="xMidYMid meet">

<g transform="translate(0.000000,249.000000) scale(0.100000,-0.100000)"
fill="#000000" stroke="none">
<path d="M1038 2420 c-261 -49 -470 -159 -653 -344 -231 -235 -348 -521 -348
-851 0 -266 78 -510 228 -713 l42 -58 -29 -59 c-38 -75 -39 -121 -3 -152 35
-31 62 -29 138 8 l64 32 81 -57 c503 -352 1218 -259 1614 211 124 147 197 290
256 501 25 90 27 111 27 287 0 163 -4 202 -23 278 -39 156 -122 332 -213 453
l-31 41 31 61 c36 71 39 114 11 142 -35 35 -64 35 -139 0 l-71 -33 -72 50
c-270 187 -602 260 -910 203z m674 -961 l-239 -462 -462 -239 c-255 -132 -464
-238 -465 -236 -2 1 106 212 238 467 l241 463 460 238 c253 131 461 237 463
235 2 -2 -104 -211 -236 -466z"/>
<path d="M1150 1444 c-50 -22 -89 -61 -116 -119 -75 -159 36 -337 211 -338 96
0 175 45 218 127 28 53 30 165 4 213 -24 45 -84 103 -123 119 -44 18 -150 17
-194 -2z m125 -166 c48 -22 45 -87 -5 -108 -25 -10 -34 -10 -55 4 -39 26 -30
93 15 109 8 3 16 6 17 6 1 1 14 -4 28 -11z"/>
</g>
</svg>
